<svg width="26" height="26" viewBox="0 0 26 26" fill="none" xmlns="http://www.w3.org/2000/svg">
<path d="M13 14.0833C13 11.9167 16.25 13 16.25 9.75C16.25 6.5 9.75 6.5 9.75 9.75M22.75 13C22.75 14.9284 22.1782 16.8134 21.1068 18.4168C20.0355 20.0202 18.5127 21.2699 16.7312 22.0078C14.9496 22.7458 12.9892 22.9389 11.0979 22.5627C9.20656 22.1865 7.46928 21.2579 6.10571 19.8943C4.74215 18.5307 3.81355 16.7934 3.43735 14.9021C3.06114 13.0108 3.25422 11.0504 3.99218 9.26884C4.73013 7.48726 5.97982 5.96452 7.58319 4.89317C9.18657 3.82183 11.0716 3.25 13 3.25C15.5859 3.25 18.0658 4.27723 19.8943 6.10571C21.7228 7.93419 22.75 10.4141 22.75 13Z" stroke="white" stroke-width="2" stroke-linecap="round" stroke-linejoin="round"/>
<path d="M13.0541 18.4167H12.9458" stroke="white" stroke-width="2.5" stroke-linecap="round" stroke-linejoin="round"/>
</svg>
