<svg width="39" height="39" viewBox="0 0 39 39" fill="none" xmlns="http://www.w3.org/2000/svg">
<path d="M12.8915 4.47067C13.2938 4.44508 13.6418 4.57535 13.9103 4.87789C14.2525 5.26343 14.2254 5.70658 14.2217 6.18888C14.2199 6.42322 14.2256 6.65793 14.2096 6.89397C15.2422 6.91543 16.3104 6.90073 17.3469 6.90071L24.7815 6.90364C24.7558 6.64334 24.8015 6.33978 24.776 6.09203C24.6929 5.28691 25.0738 4.44588 26.0233 4.46848C26.352 4.47427 26.6645 4.61277 26.8893 4.85246C27.2502 5.23738 27.2173 5.64164 27.2169 6.13011C27.2188 6.38373 27.2161 6.63734 27.2093 6.89086C27.8266 6.91255 28.4724 6.89937 29.0919 6.89703C29.3261 6.89614 29.5864 6.86645 29.8311 6.86306C31.2831 6.8536 32.6807 7.41508 33.7225 8.42645C34.5303 9.21696 35.0753 10.237 35.2837 11.3479C35.4349 12.1573 35.3465 12.7317 35.345 13.5335L35.3446 17.0781L35.3755 30.6695C35.3829 32.1307 34.8065 33.5346 33.7745 34.5692C32.778 35.5678 31.4385 36.1494 30.0286 36.1956C29.6136 36.209 29.0355 36.1562 28.5741 36.1572L16.1918 36.1575L12.0623 36.1574C11.38 36.1574 10.6971 36.1553 10.0149 36.1572C9.73733 36.1579 9.44711 36.1975 9.17308 36.197C7.70352 36.1939 6.32086 35.6422 5.27244 34.6193C4.46086 33.828 3.91501 32.8045 3.71032 31.6897C3.56676 30.9175 3.65675 30.3771 3.65687 29.6155L3.65719 25.8652L3.6189 12.3634C3.62316 10.8994 4.20378 9.49605 5.23507 8.45701C6.20289 7.50429 7.48629 6.93929 8.84254 6.86885C9.25662 6.84668 9.58338 6.89469 9.9838 6.89857C10.5785 6.90434 11.1787 6.90153 11.7738 6.90185C11.7719 6.65979 11.7721 6.41772 11.7743 6.17567C11.7766 5.73088 11.7492 5.30959 12.0319 4.937C12.2649 4.62978 12.5227 4.52302 12.8915 4.47067ZM32.0717 32.7942C33.0012 31.8093 32.9075 30.3195 32.9075 29.0585L32.9073 26.6109L32.9067 20.1045C32.9067 18.9771 32.8871 17.787 32.9107 16.6635C30.6602 16.6363 28.3718 16.6571 26.1191 16.6571L13.5239 16.6573L8.28557 16.6569L6.85304 16.6592C6.65926 16.6598 6.26934 16.6749 6.09821 16.6475C6.08058 17.7426 6.09452 18.8736 6.09484 19.9708L6.09532 25.9673V28.9184C6.0945 30.2097 5.96819 31.7952 6.9302 32.8096C7.64913 33.5677 8.79219 33.7023 9.78391 33.7115C11.3048 33.717 12.8308 33.7128 14.3533 33.7128L23.2093 33.7124L27.4783 33.7128C28.0932 33.7132 28.7121 33.7191 29.3265 33.7094C30.2411 33.6951 31.3066 33.5494 31.9883 32.8791C32.0165 32.8513 32.0443 32.8229 32.0717 32.7942ZM11.782 9.35306C11.1072 9.3435 10.3243 9.32926 9.64937 9.34754C8.68686 9.36715 7.59598 9.5269 6.9099 10.2611C5.96729 11.2698 6.09364 12.9161 6.09448 14.2097L32.9031 14.2119C32.9084 13.738 32.9083 13.264 32.9024 12.7901C32.8639 11.8435 32.6997 10.8158 31.9677 10.1446C30.7532 9.03093 28.6973 9.42866 27.2129 9.34864C27.2163 9.60049 27.2176 9.85237 27.2169 10.1042C27.2171 10.6017 27.2557 10.9952 26.8838 11.3882C26.657 11.628 26.3579 11.7693 26.0256 11.7759C25.6976 11.7832 25.3804 11.6579 25.1458 11.4284C24.8578 11.1493 24.7695 10.8043 24.7765 10.4154C24.7828 10.0743 24.764 9.68666 24.7847 9.35013L17.435 9.34466L15.2713 9.34508C14.9917 9.34518 14.4727 9.36279 14.2174 9.342L14.2204 10.0916C14.2218 10.5988 14.2489 11.0274 13.8585 11.4179C13.6311 11.6491 13.3197 11.7782 12.9954 11.7757C12.6668 11.7722 12.3529 11.6385 12.1227 11.4039C11.7543 11.0304 11.7762 10.6183 11.7774 10.128L11.7802 9.42421C11.7805 9.4005 11.7811 9.37677 11.782 9.35306Z" fill="white"/>
</svg>
