<svg width="39" height="39" viewBox="0 0 39 39" fill="none" xmlns="http://www.w3.org/2000/svg">
<path d="M12.8913 4.47067C13.2937 4.44508 13.6417 4.57535 13.9101 4.87789C14.2523 5.26343 14.2252 5.70658 14.2215 6.18888C14.2197 6.42322 14.2254 6.65793 14.2095 6.89397C15.2421 6.91543 16.3103 6.90073 17.3468 6.90071L24.7814 6.90364C24.7557 6.64334 24.8014 6.33978 24.7758 6.09203C24.6928 5.28691 25.0737 4.44588 26.0232 4.46848C26.3518 4.47427 26.6643 4.61277 26.8892 4.85246C27.2501 5.23738 27.2171 5.64164 27.2168 6.13011C27.2187 6.38373 27.216 6.63734 27.2091 6.89086C27.8265 6.91255 28.4723 6.89937 29.0917 6.89703C29.326 6.89614 29.5863 6.86645 29.831 6.86306C31.283 6.8536 32.6806 7.41508 33.7224 8.42645C34.5302 9.21696 35.0752 10.237 35.2836 11.3479C35.4348 12.1573 35.3464 12.7317 35.3449 13.5335L35.3445 17.0781L35.3753 30.6696C35.3828 32.1307 34.8063 33.5346 33.7744 34.5692C32.7779 35.5678 31.4384 36.1494 30.0285 36.1956C29.6135 36.209 29.0354 36.1562 28.574 36.1572L16.1917 36.1575L12.0622 36.1574C11.3799 36.1574 10.697 36.1553 10.0148 36.1572C9.7372 36.1579 9.44699 36.1975 9.17296 36.197C7.7034 36.1939 6.32074 35.6422 5.27231 34.6193C4.46074 33.828 3.91489 32.8045 3.7102 31.6897C3.56663 30.9175 3.65663 30.3771 3.65675 29.6155L3.65707 25.8652L3.61877 12.3634C3.62304 10.8994 4.20366 9.49605 5.23495 8.45701C6.20277 7.50429 7.48617 6.93929 8.84241 6.86885C9.2565 6.84668 9.58326 6.89469 9.98368 6.89857C10.5784 6.90434 11.1786 6.90153 11.7737 6.90185C11.7718 6.65979 11.772 6.41772 11.7742 6.17567C11.7765 5.73088 11.7491 5.30959 12.0317 4.937C12.2648 4.62978 12.5226 4.52302 12.8913 4.47067ZM32.0716 32.7942C33.0011 31.8093 32.9074 30.3195 32.9074 29.0585L32.9072 26.6109L32.9066 20.1045C32.9066 18.9771 32.887 17.787 32.9106 16.6635C30.6601 16.6363 28.3717 16.6571 26.1189 16.6571L13.5238 16.6573L8.28544 16.6569L6.85292 16.6592C6.65914 16.6598 6.26921 16.6749 6.09809 16.6475C6.08046 17.7426 6.0944 18.8736 6.09472 19.9708L6.0952 25.9673V28.9184C6.09438 30.2097 5.96807 31.7952 6.93008 32.8096C7.64901 33.5677 8.79206 33.7023 9.78378 33.7115C11.3047 33.717 12.8306 33.7128 14.3531 33.7128L23.2092 33.7124L27.4782 33.7128C28.0931 33.7132 28.712 33.7191 29.3263 33.7094C30.241 33.6951 31.3064 33.5494 31.9882 32.8791C32.0164 32.8513 32.0442 32.8229 32.0716 32.7942ZM11.7819 9.35306C11.1071 9.3435 10.3242 9.32926 9.64924 9.34754C8.68674 9.36715 7.59586 9.5269 6.90978 10.2611C5.96717 11.2698 6.09352 12.9161 6.09436 14.2097L32.903 14.2119C32.9083 13.738 32.9081 13.264 32.9022 12.7901C32.8638 11.8435 32.6996 10.8158 31.9676 10.1446C30.753 9.03093 28.6972 9.42866 27.2128 9.34864C27.2162 9.60049 27.2175 9.85237 27.2168 10.1042C27.217 10.6017 27.2556 10.9952 26.8837 11.3882C26.6569 11.628 26.3577 11.7693 26.0254 11.7759C25.6975 11.7832 25.3803 11.6579 25.1457 11.4284C24.8577 11.1493 24.7694 10.8043 24.7764 10.4154C24.7827 10.0743 24.7638 9.68666 24.7846 9.35013L17.4348 9.34466L15.2712 9.34508C14.9915 9.34518 14.4726 9.36279 14.2173 9.342L14.2203 10.0916C14.2217 10.5988 14.2488 11.0274 13.8583 11.4179C13.631 11.6491 13.3196 11.7782 12.9953 11.7757C12.6667 11.7722 12.3528 11.6385 12.1226 11.4039C11.7542 11.0304 11.7761 10.6183 11.7772 10.128L11.7801 9.42421C11.7804 9.4005 11.781 9.37677 11.7819 9.35306Z" fill="#026234"/>
</svg>
