<svg width="35" height="35" viewBox="0 0 35 35" fill="none" xmlns="http://www.w3.org/2000/svg">
<path d="M2.18516 2.1861C2.18376 1.74048 2.10887 1.09321 2.74439 1.09991C3.36395 1.10644 3.28597 1.78377 3.28258 2.18352C3.64586 2.18688 4.00916 2.18775 4.37245 2.18611C4.37121 1.74275 4.2982 1.08781 4.93247 1.10027C5.55246 1.11244 5.47386 1.77686 5.47 2.18362C5.8275 2.18669 6.18502 2.18762 6.54254 2.18635C6.53661 1.74542 6.46996 1.10588 7.0888 1.10049C7.69038 1.09524 7.65736 1.72334 7.63731 2.13114C7.63641 2.14771 7.6353 2.16427 7.63398 2.18083C8.00507 2.18784 8.37626 2.18962 8.7474 2.18616C8.74656 1.74222 8.67342 1.08772 9.30747 1.10026C9.92754 1.11253 9.84877 1.77685 9.84508 2.18352C10.2084 2.1869 10.5717 2.18775 10.935 2.18611C10.9337 1.74275 10.8607 1.0878 11.495 1.10026C12.115 1.11244 12.0363 1.77681 12.0326 2.18355C12.3959 2.1869 12.7592 2.18775 13.1225 2.18611C13.1212 1.74275 13.0482 1.08778 13.6825 1.10026C14.3025 1.11247 14.2238 1.77685 14.2201 2.18355C14.5834 2.1869 14.9467 2.18775 15.31 2.18611C15.3087 1.74275 15.2357 1.08778 15.87 1.10026C16.49 1.11245 16.4113 1.77683 16.4076 2.18355C16.7709 2.1869 17.1341 2.18775 17.4974 2.18611C17.4962 1.74277 17.4233 1.08777 18.0575 1.10026C18.6775 1.11246 18.5989 1.77686 18.5951 2.18355C18.9583 2.1869 19.3216 2.18775 19.6849 2.18611C19.6837 1.74275 19.6108 1.0878 20.245 1.10027C20.865 1.11246 20.7864 1.77676 20.7826 2.1835C21.1458 2.18687 21.5091 2.18775 21.8724 2.18611C21.8712 1.74275 21.7983 1.08779 22.4325 1.10026C23.0525 1.11245 22.9739 1.77679 22.9701 2.1835C23.3333 2.18687 23.6966 2.18775 24.0599 2.18611C24.0587 1.74275 23.9858 1.08778 24.62 1.10027C25.24 1.11247 25.1614 1.77676 25.1576 2.1835C25.5208 2.1869 25.8841 2.18775 26.2474 2.1861C26.2462 1.74273 26.1733 1.0878 26.8075 1.10025C27.4275 1.11243 27.3489 1.77681 27.3451 2.18353C27.7084 2.18692 28.0716 2.18777 28.4349 2.1861C28.4341 1.89538 28.3794 1.4646 28.6028 1.24802C28.8167 1.04071 29.1898 1.05337 29.3884 1.27476C29.5844 1.4934 29.5352 1.90256 29.5324 2.18386C30.2138 2.1868 30.7243 2.1561 31.2455 2.67605C31.8069 3.23613 31.721 3.91897 31.7203 4.63991L31.7198 6.3452L31.7196 11.9658V23.2644C31.7196 25.1295 31.7199 26.9956 31.7199 28.8609C31.7199 29.1185 31.6924 29.3632 31.593 29.6066C31.371 30.15 30.8371 30.5655 30.2475 30.6171C29.8472 30.6446 29.4149 30.6328 29.0088 30.6328L26.795 30.6325L19.7759 30.6321H7.75409L3.81712 30.6326C3.12136 30.633 2.42592 30.6355 1.72982 30.6302C1.39771 30.6277 1.11802 30.5781 0.826762 30.4091C0.485468 30.211 0.212577 29.9007 0.0912256 29.522C0.0727527 29.4644 0.0310586 29.3171 0 29.2719V3.53877C0.0767035 3.39937 0.0992739 3.23095 0.166891 3.09721C0.362332 2.71065 0.702186 2.40018 1.11921 2.27225C1.46512 2.16374 1.83 2.18569 2.18516 2.1861ZM30.4512 29.3717C30.5594 29.2496 30.6088 29.1598 30.6177 28.9912C30.6306 28.7463 30.6267 28.4925 30.6265 28.2469L30.6259 26.9455L30.6255 22.9167L30.6253 12.0768V8.47441C30.6253 7.86174 30.6118 7.18397 30.6288 6.57473L9.37626 6.56942L3.52324 6.56968L1.8954 6.57116C1.69803 6.57149 1.26804 6.58659 1.09838 6.5604C1.06569 8.06815 1.09474 9.66888 1.09475 11.1855L1.09459 20.0877L1.09457 26.0341L1.09458 27.967C1.09458 28.3026 1.09276 28.6425 1.09757 28.978C1.09896 29.0754 1.13603 29.2494 1.20622 29.3184C1.32629 29.4367 1.44994 29.5185 1.62419 29.5242C1.99035 29.5361 2.3657 29.5315 2.73169 29.5315L4.80266 29.531L11.3589 29.5305L23.6829 29.5307C25.7592 29.5307 27.8363 29.5314 29.9125 29.53C30.1403 29.5298 30.2733 29.5273 30.4512 29.3717ZM28.4413 3.29386C28.2029 3.29195 27.5336 3.30646 27.3461 3.27933C27.3475 3.58599 27.4008 3.9982 27.1756 4.21823C27.0698 4.32193 26.9264 4.37826 26.7782 4.3743C26.6284 4.37083 26.4865 4.30619 26.3855 4.19542C26.1957 3.98333 26.2474 3.57608 26.2538 3.29384C26.0072 3.29196 25.3487 3.30683 25.1586 3.27933C25.1604 3.73628 25.2398 4.30847 24.6282 4.3783C23.9721 4.33415 24.0534 3.77919 24.0663 3.29386C23.8279 3.29195 23.1586 3.30646 22.9711 3.27933C22.9725 3.58606 23.0258 3.99817 22.8006 4.21828C22.6948 4.32195 22.5514 4.37824 22.4032 4.3743C22.2534 4.37081 22.1115 4.30618 22.0105 4.19542C21.8207 3.98333 21.8726 3.57612 21.8788 3.29386C21.6404 3.29195 20.9711 3.30647 20.7836 3.27933C20.785 3.58596 20.8383 3.99829 20.6131 4.21825C20.5073 4.32192 20.3639 4.37823 20.2157 4.37428C20.0659 4.37081 19.924 4.30619 19.823 4.19542C19.6332 3.9834 19.6849 3.57593 19.6913 3.29383C19.4448 3.29195 18.7862 3.30683 18.5961 3.27933C18.5975 3.58596 18.6508 3.99829 18.4256 4.21825C18.3198 4.32192 18.1764 4.37823 18.0282 4.37428C17.8784 4.37081 17.7365 4.30618 17.6355 4.19542C17.4457 3.98344 17.4976 3.57596 17.5038 3.29386C17.2654 3.29195 16.5961 3.30646 16.4086 3.27933C16.41 3.58598 16.4633 3.99823 16.2381 4.21823C16.1322 4.32192 15.9889 4.37821 15.8408 4.37428C15.6909 4.37083 15.549 4.30621 15.448 4.19543C15.2582 3.98342 15.31 3.57593 15.3163 3.29384C15.0697 3.29196 14.4112 3.30683 14.2211 3.27933C14.2225 3.58608 14.2759 3.99817 14.0506 4.21828C13.9447 4.32195 13.8014 4.37824 13.6533 4.3743C13.5034 4.37081 13.3615 4.30619 13.2605 4.19542C13.0706 3.98332 13.1225 3.57608 13.1288 3.29384C12.8823 3.29196 12.2236 3.30683 12.0336 3.27933C12.035 3.58598 12.0883 3.99822 11.8631 4.21825C11.7573 4.32193 11.6139 4.37824 11.4658 4.3743C11.3159 4.37081 11.174 4.30618 11.073 4.19542C10.8831 3.98332 10.935 3.57613 10.9413 3.29386C10.7029 3.29195 10.0336 3.30647 9.84609 3.27933C9.84746 3.58601 9.90086 3.99818 9.67559 4.21825C9.56977 4.32193 9.42638 4.37824 9.27828 4.3743C9.12842 4.37079 8.98651 4.30618 8.88551 4.19542C8.69553 3.98332 8.74756 3.57624 8.75381 3.29393C8.40566 3.29123 7.97918 3.30129 7.63971 3.28648C7.64109 3.57249 7.68821 3.99726 7.48376 4.20736C7.38042 4.31342 7.23868 4.37332 7.09059 4.37349C6.46885 4.37447 6.53898 3.71463 6.55031 3.29461C6.32372 3.29285 5.64308 3.30499 5.47109 3.27928C5.47246 3.58593 5.52585 3.99825 5.30059 4.21825C5.19475 4.32192 5.0514 4.37821 4.9033 4.37428C4.75342 4.37081 4.61149 4.30618 4.51047 4.19542C4.32064 3.98344 4.37254 3.57598 4.37879 3.29386C4.14042 3.29195 3.47107 3.30646 3.28366 3.27933C3.28498 3.58599 3.3383 3.99822 3.1131 4.21823C3.00727 4.32193 2.8639 4.37824 2.71578 4.3743C2.56592 4.37083 2.42401 4.30619 2.32301 4.19542C2.13303 3.98325 2.18509 3.57543 2.19152 3.29311C2.05804 3.29078 1.92457 3.28959 1.7911 3.28954C1.63355 3.29437 1.49909 3.2895 1.35631 3.36851C1.01693 3.55631 1.0923 4.07962 1.09396 4.41646L1.09439 5.46528L30.6223 5.46728L30.6274 4.42704C30.6286 4.13928 30.6742 3.64593 30.4536 3.43087C30.2417 3.22436 29.8042 3.32151 29.5335 3.27872C29.5348 3.58524 29.5883 3.99823 29.3631 4.2183C29.2573 4.32197 29.1139 4.37826 28.9657 4.37428C28.8159 4.37076 28.674 4.30613 28.573 4.1954C28.383 3.9834 28.4351 3.5761 28.4413 3.29386Z" fill="white"/>
<path d="M3.46804 22.4274C4.17573 22.3997 4.9066 22.4307 5.6166 22.4201C6.07534 22.4132 6.55524 22.4084 7.01044 22.4447C7.1785 22.4582 7.34956 22.5369 7.48096 22.6398C7.98229 23.0008 7.93085 23.4928 7.93138 24.0515L7.93176 25.0808L7.93133 26.1988C7.93126 26.4563 7.94586 26.7482 7.90274 27.001C7.81901 27.4918 7.4173 27.8213 6.93451 27.8879C5.97338 27.9286 4.9896 27.8786 4.02471 27.8999C3.64663 27.9081 3.25375 27.9221 2.92978 27.6899C2.39089 27.3035 2.46131 26.838 2.46075 26.2335L2.46032 25.1129L2.4607 24.0588C2.46085 23.8274 2.45125 23.5943 2.48114 23.3646C2.55309 22.8118 2.93111 22.4975 3.46804 22.4274ZM3.55534 26.793C4.62759 26.7993 5.76338 26.812 6.83401 26.7954L6.83766 25.5637C6.44046 25.7105 6.05348 25.8797 5.65988 26.0352C5.45552 26.1159 5.27399 26.1458 5.07235 26.0443C4.87717 25.9089 4.78851 25.7143 4.68029 25.5094C4.58762 25.334 4.41969 25.1146 4.38565 24.9247C4.35892 24.7786 4.39204 24.6281 4.47754 24.5066C4.56099 24.3869 4.68988 24.3069 4.83409 24.2851C5.23946 24.2247 5.41748 24.5554 5.57103 24.8627C5.85349 24.7918 6.53495 24.4987 6.82804 24.3762C6.84688 24.0979 6.83155 23.8072 6.83965 23.5276C6.09518 23.5217 5.35066 23.5201 4.60618 23.5234C4.39395 23.5235 3.73261 23.5398 3.56005 23.514C3.52955 24.586 3.56761 25.7141 3.55534 26.793Z" fill="white"/>
<path d="M3.468 8.20888C4.1644 8.18154 4.91628 8.21182 5.61965 8.20138C6.05901 8.19487 6.58316 8.18966 7.01719 8.22702C7.20485 8.2492 7.3335 8.31482 7.48094 8.42107C7.98216 8.78221 7.93081 9.27409 7.93134 9.83286L7.93172 10.8621L7.93127 11.9803C7.9312 12.2379 7.94576 12.5293 7.90266 12.7823C7.81914 13.2728 7.41735 13.6027 6.93488 13.6692C5.97826 13.7168 4.98642 13.655 4.02476 13.6813C3.6498 13.6915 3.25048 13.7013 2.92971 13.4714C2.39117 13.0854 2.46127 12.6185 2.46073 12.0148L2.46028 10.8942L2.46066 9.84021C2.46081 9.60887 2.45121 9.37569 2.4811 9.14599C2.55305 8.5931 2.93106 8.27895 3.468 8.20888ZM3.5553 12.5745C4.62664 12.5807 5.76418 12.5937 6.83374 12.5767L6.8375 11.2083C6.56251 11.31 6.2968 11.4236 6.02471 11.5316C5.73873 11.6452 5.49154 11.7933 5.17629 11.7398C5.10292 11.7033 4.9903 11.6468 4.94472 11.583C4.82319 11.4129 4.46718 10.8213 4.40791 10.6512C4.35855 10.5114 4.36794 10.3576 4.4339 10.2248C4.49861 10.092 4.61524 9.99173 4.75629 9.94771C4.89675 9.90416 5.04883 9.91924 5.17801 9.98948C5.36383 10.0922 5.47782 10.3214 5.57113 10.5073C5.84988 10.4374 6.53865 10.1423 6.82805 10.0205C6.84417 9.78382 6.83311 9.54579 6.83962 9.30906C6.09358 9.3031 5.34753 9.30161 4.60147 9.30463C4.38944 9.30487 3.73184 9.32101 3.55989 9.29525C3.53084 10.3707 3.56791 11.4932 3.5553 12.5745Z" fill="white"/>
<path d="M3.468 15.3183C4.1644 15.2909 4.9163 15.3212 5.61965 15.3108C6.05901 15.3042 6.58317 15.299 7.01719 15.3364C7.20485 15.3586 7.33349 15.4242 7.48094 15.5304C7.98215 15.8916 7.93081 16.3835 7.93134 16.9422L7.93172 17.9715L7.93129 19.0896C7.93122 19.3473 7.94578 19.6387 7.90268 19.8918C7.81908 20.3822 7.41736 20.7121 6.9348 20.7785C5.97833 20.8261 4.98686 20.7642 4.02539 20.7907C3.65038 20.8009 3.25052 20.8107 2.92971 20.5808C2.39117 20.1948 2.46127 19.7279 2.46073 19.1243L2.46028 18.0037L2.46066 16.9496C2.46081 16.7182 2.45121 16.4851 2.4811 16.2554C2.55305 15.7025 2.93106 15.3883 3.468 15.3183ZM3.5553 19.6838C4.62751 19.6901 5.76336 19.7027 6.83395 19.6862L6.83762 18.4545C6.44046 18.6013 6.05339 18.7705 5.65976 18.926C5.45541 19.0067 5.2739 19.0366 5.07229 18.9351C4.87687 18.7995 4.78869 18.6051 4.68018 18.4002C4.58583 18.2219 4.41765 18.0028 4.38453 17.8088C4.35961 17.6648 4.39302 17.5168 4.4774 17.3973C4.56095 17.2777 4.68991 17.1977 4.83413 17.1758C5.23955 17.1157 5.41746 17.446 5.57094 17.7535C5.85516 17.6822 6.53308 17.3898 6.82798 17.2669C6.84682 16.9889 6.83156 16.698 6.83961 16.4183C6.09591 16.4124 5.35217 16.4109 4.60848 16.4141C4.39702 16.4143 3.73163 16.4304 3.56001 16.4046C3.52949 17.4766 3.56755 18.6049 3.5553 19.6838Z" fill="white"/>
<path d="M17.6867 8.20889C18.3831 8.18153 19.1351 8.21183 19.8383 8.20139C20.2777 8.19486 20.8019 8.18966 21.236 8.22704C21.4236 8.24922 21.5523 8.31483 21.6998 8.42108C22.2008 8.78225 22.1496 9.27407 22.1501 9.83287L22.1504 10.8621L22.1501 11.9803C22.1499 12.2379 22.1644 12.5293 22.1214 12.7823C22.038 13.2728 21.6362 13.6027 21.1536 13.6692C20.1969 13.7168 19.2047 13.655 18.2428 13.6813C17.8681 13.6915 17.469 13.7012 17.1484 13.4714C16.6099 13.0854 16.68 12.6184 16.6795 12.0148L16.679 10.8943L16.6794 9.84022C16.6796 9.60887 16.67 9.37572 16.6998 9.14601C16.7718 8.5931 17.1498 8.27896 17.6867 8.20889ZM17.7741 12.5745C18.8454 12.5807 19.9829 12.5937 21.0524 12.5767L21.0562 11.2083C20.7812 11.31 20.5156 11.4236 20.2434 11.5316C19.9576 11.6451 19.7102 11.7934 19.3952 11.7398C19.3217 11.7034 19.2091 11.6469 19.1635 11.583C19.042 11.4129 18.686 10.8212 18.6267 10.6513C18.5773 10.5114 18.5867 10.3576 18.6527 10.2248C18.7173 10.092 18.834 9.99181 18.975 9.94775C19.1154 9.90417 19.2675 9.91921 19.3967 9.98948C19.5825 10.0922 19.6967 10.3214 19.7898 10.5073C20.0699 10.4371 20.7562 10.1426 21.0468 10.0206C21.063 9.78386 21.0519 9.54581 21.0584 9.30907C20.3124 9.3031 19.5663 9.30162 18.8203 9.30464C18.6082 9.30488 17.9504 9.32101 17.7787 9.29526C17.7495 10.3703 17.7867 11.4935 17.7741 12.5745Z" fill="white"/>
<path d="M10.5774 22.4276C11.2738 22.4002 12.0257 22.4306 12.729 22.4202C13.1684 22.4136 13.6926 22.4084 14.1266 22.4459C14.3143 22.4679 14.4429 22.5335 14.5903 22.6398C15.0916 23.0011 15.0402 23.4928 15.0407 24.0516L15.0411 25.0809L15.0407 26.199C15.0406 26.4565 15.0552 26.7482 15.0121 27.0011C14.9283 27.492 14.5267 27.8215 14.0438 27.8881C13.0826 27.9288 12.099 27.8789 11.1342 27.9001C10.7564 27.9083 10.3628 27.9223 10.0391 27.6902C9.50035 27.304 9.57067 26.8376 9.57012 26.2336L9.56968 25.1131L9.57007 24.059C9.57021 23.8276 9.5606 23.5945 9.59051 23.3648C9.66246 22.8117 10.0404 22.4978 10.5774 22.4276ZM13.947 25.5639C13.5499 25.7107 13.1629 25.8799 12.7692 26.0354C12.5649 26.1161 12.3833 26.146 12.1817 26.0445C11.9865 25.9091 11.8979 25.7145 11.7897 25.5095C11.697 25.3342 11.5291 25.1148 11.495 24.9249C11.4683 24.7788 11.5014 24.6282 11.5869 24.5069C11.6703 24.3871 11.7992 24.3071 11.9435 24.2852C12.3488 24.2249 12.5268 24.5556 12.6804 24.8629C12.9623 24.7921 13.6448 24.4987 13.9374 24.3763C13.9562 24.0983 13.941 23.8074 13.949 23.5278C13.2053 23.5218 12.4616 23.5203 11.7179 23.5235C11.5062 23.5237 10.8413 23.5398 10.6694 23.514C10.639 24.5864 10.6769 25.7141 10.6647 26.7932C11.7356 26.7995 12.8742 26.8126 13.9433 26.7956L13.947 25.5639Z" fill="white"/>
<path d="M10.5774 8.20886C11.2739 8.18159 12.0256 8.2118 12.7291 8.20138C13.1685 8.19488 13.6925 8.18964 14.1266 8.22701C14.3143 8.24914 14.4428 8.31491 14.5903 8.42107C15.0942 8.7836 15.0402 9.28197 15.0407 9.84277L15.0412 10.8765L15.0407 11.9884C15.0406 12.2446 15.0552 12.5378 15.011 12.7885C14.9251 13.2759 14.5243 13.603 14.0441 13.6692C13.0829 13.71 12.0991 13.6601 11.1342 13.6813C10.756 13.6896 10.3632 13.7036 10.0391 13.4713C9.50025 13.0849 9.57068 12.6193 9.57013 12.0148L9.56969 10.8942L9.57008 9.84021C9.57022 9.60886 9.56061 9.37571 9.5905 9.14599C9.66247 8.59306 10.0405 8.27898 10.5774 8.20886ZM10.6647 12.5745C11.7361 12.5807 12.8735 12.5937 13.9431 12.5767L13.9469 11.2083C13.6719 11.31 13.4062 11.4235 13.1341 11.5316C12.8479 11.6453 12.6009 11.7934 12.2855 11.7398C12.2122 11.7033 12.0997 11.6467 12.0541 11.583C11.9326 11.413 11.5765 10.8211 11.5173 10.6512C11.468 10.5114 11.4774 10.3576 11.5433 10.2248C11.608 10.092 11.7246 9.99178 11.8656 9.94774C12.0061 9.90419 12.1582 9.91925 12.2874 9.98949C12.4733 10.0921 12.5872 10.3213 12.6805 10.5072C12.9598 10.4373 13.6474 10.1424 13.9374 10.0206C13.9536 9.78378 13.9424 9.54582 13.949 9.30906C13.2054 9.30309 12.4617 9.3016 11.7181 9.30458C11.504 9.30483 10.842 9.32112 10.6693 9.29525C10.6401 10.3705 10.6773 11.4934 10.6647 12.5745Z" fill="white"/>
<path d="M17.6868 22.4275C18.3832 22.4001 19.1351 22.4306 19.8384 22.4201C20.2777 22.4136 20.8019 22.4083 21.236 22.4458C21.4236 22.4678 21.5523 22.5334 21.6998 22.6397C22.2009 23.001 22.1496 23.4927 22.1501 24.0515L22.1505 25.0809L22.1501 26.1989C22.1499 26.4564 22.1646 26.7483 22.1214 27.0011C22.0377 27.4919 21.6359 27.8214 21.1533 27.888C20.1827 27.9292 19.189 27.8785 18.2147 27.9C17.8433 27.9082 17.4666 27.9179 17.1484 27.69C16.6097 27.3039 16.68 26.8379 16.6795 26.2336L16.6791 25.113L16.6794 24.0589C16.6796 23.8275 16.67 23.5944 16.6999 23.3647C16.7718 22.8117 17.1498 22.4977 17.6868 22.4275ZM17.7741 26.7931C18.8456 26.7994 19.9828 26.8122 21.0528 26.7955L21.0564 25.5636C20.6592 25.7106 20.2721 25.8798 19.8785 26.0353C19.6743 26.116 19.4928 26.1457 19.2913 26.0446C19.0956 25.9089 19.0076 25.7147 18.8989 25.5095C18.8046 25.3312 18.6364 25.1123 18.6033 24.9182C18.5783 24.7741 18.6118 24.6259 18.6963 24.5066C18.7798 24.387 18.9087 24.307 19.0529 24.2852C19.4585 24.225 19.636 24.5553 19.7898 24.8628C20.0734 24.7915 20.7525 24.4989 21.0468 24.3762C21.0656 24.0982 21.0504 23.8073 21.0584 23.5277C20.3147 23.5218 19.5709 23.5202 18.8272 23.5235C18.6146 23.5236 17.952 23.5399 17.7787 23.5141C17.7485 24.5865 17.7864 25.714 17.7741 26.7931Z" fill="white"/>
<path d="M24.7961 8.20889C25.4925 8.18155 26.2445 8.21183 26.9477 8.20139C27.3871 8.19486 27.9112 8.18965 28.3453 8.22704C28.533 8.24921 28.6617 8.31483 28.8091 8.42108C29.3102 8.78222 29.2589 9.27411 29.2595 9.83287L29.2598 10.8621L29.2593 11.9803C29.2593 12.2379 29.2738 12.5293 29.2307 12.7823C29.1472 13.2731 28.7454 13.6027 28.2626 13.6693C27.295 13.7104 26.2957 13.66 25.3245 13.6813C24.9296 13.6899 24.5733 13.7006 24.2412 13.459C23.7235 13.0823 23.7893 12.6096 23.7888 12.036L23.7885 10.9184L23.7888 9.85762C23.789 9.61607 23.7772 9.36335 23.8124 9.12433C23.8924 8.58125 24.2689 8.27772 24.7961 8.20889ZM24.8834 12.5745C25.9548 12.5807 27.0923 12.5937 28.1618 12.5767L28.1655 11.2083C27.8906 11.31 27.625 11.4236 27.3527 11.5316C27.0667 11.6453 26.8195 11.7934 26.5042 11.7398C26.4309 11.7033 26.3183 11.6467 26.2728 11.583C26.1513 11.4129 25.7953 10.8212 25.736 10.6513C25.6867 10.5114 25.6961 10.3576 25.762 10.2248C25.8266 10.0921 25.9433 9.99181 26.0843 9.94775C26.2248 9.90417 26.3769 9.91921 26.5061 9.98949C26.6919 10.0922 26.8059 10.3214 26.8992 10.5073C27.1771 10.4376 27.8677 10.142 28.1563 10.0205C28.1722 9.78362 28.1611 9.54583 28.1678 9.30905C27.4218 9.30311 26.6756 9.30164 25.9297 9.30464C25.7176 9.3049 25.06 9.32102 24.888 9.29526C24.8588 10.37 24.8957 11.4937 24.8834 12.5745Z" fill="white"/>
<path d="M24.7948 15.3182C25.5028 15.2901 26.2344 15.3213 26.9449 15.3107C27.4034 15.3038 27.8834 15.2991 28.3385 15.3353C28.5065 15.3487 28.6778 15.4276 28.809 15.5304C29.3104 15.8915 29.259 16.3833 29.2595 16.9421L29.2599 17.9714L29.2595 19.0894C29.2593 19.3466 29.274 19.6392 29.231 19.8916C29.1471 20.3824 28.7455 20.7118 28.2625 20.7786C27.2918 20.8196 26.2982 20.769 25.3239 20.7906C24.9524 20.7988 24.576 20.8085 24.2578 20.5805C23.7192 20.1945 23.7894 19.7284 23.7889 19.1241L23.7885 18.0035L23.7889 16.9495C23.7891 16.7185 23.779 16.4844 23.8092 16.2552C23.8825 15.6993 24.2583 15.3905 24.7948 15.3182ZM24.8835 19.6836C25.9552 19.69 27.0922 19.7028 28.1622 19.686L28.1658 18.4544C27.7686 18.601 27.3817 18.7704 26.9879 18.9259C26.7837 19.0065 26.602 19.0365 26.4006 18.9349C26.205 18.7994 26.1169 18.6051 26.0083 18.4C25.914 18.2218 25.7458 18.0027 25.7127 17.8087C25.6877 17.6647 25.7212 17.5167 25.8057 17.3972C25.8892 17.2776 26.0181 17.1976 26.1623 17.1757C26.5679 17.1156 26.7454 17.4459 26.8992 17.7533C27.1836 17.6819 27.8611 17.3897 28.1562 17.2668C28.175 16.9888 28.1598 16.6978 28.1678 16.4182C27.4241 16.4122 26.6803 16.4108 25.9366 16.414C25.724 16.4142 25.0616 16.4304 24.8883 16.4046C24.8577 17.4767 24.8958 18.6048 24.8835 19.6836Z" fill="white"/>
<path d="M10.5774 15.3183C11.2738 15.2909 12.0257 15.3212 12.7291 15.3108C13.1684 15.3042 13.6926 15.299 14.1266 15.3364C14.3142 15.3586 14.4429 15.4242 14.5903 15.5304C15.0916 15.8916 15.0402 16.3835 15.0407 16.9422L15.0411 17.9715L15.0407 19.0896C15.0406 19.3473 15.0552 19.6387 15.0121 19.8916C14.9284 20.3826 14.5267 20.7121 14.0438 20.7787C13.0833 20.8192 12.1003 20.7693 11.1361 20.7907C10.7581 20.7991 10.363 20.8131 10.0391 20.5808C9.50036 20.1944 9.57067 19.7282 9.57012 19.1243L9.56969 18.0037L9.57007 16.9496C9.57021 16.7182 9.5606 16.4851 9.59049 16.2554C9.66244 15.7024 10.0405 15.3884 10.5774 15.3183ZM10.6647 19.6838C11.7365 19.6901 12.8732 19.7029 13.9433 19.6862L13.947 18.4545C13.5498 18.6013 13.1628 18.7705 12.7692 18.926C12.5648 19.0067 12.3833 19.0366 12.1817 18.9351C11.9866 18.7997 11.8979 18.6051 11.7896 18.4002C11.697 18.2248 11.5291 18.0054 11.495 17.8155C11.4683 17.6694 11.5014 17.5188 11.5869 17.3973C11.6703 17.2777 11.7993 17.1977 11.9435 17.1758C12.3487 17.1155 12.527 17.4462 12.6804 17.7535C12.9643 17.6822 13.6428 17.3898 13.9374 17.2669C13.9562 16.9887 13.9409 16.6981 13.949 16.4184C13.2053 16.4124 12.4616 16.4109 11.7179 16.4141C11.5055 16.4144 10.8423 16.4305 10.6694 16.4047C10.6389 17.4771 10.6773 18.6047 10.6647 19.6838Z" fill="white"/>
<path d="M24.5562 22.701C24.9014 22.696 25.0952 22.95 25.3201 23.1756L26.0555 23.9176C26.1114 23.974 26.4737 24.3779 26.5555 24.3297C26.628 24.2868 26.7914 24.1147 26.8604 24.0453L27.6681 23.2337C27.859 23.0418 28.1039 22.7256 28.3821 22.7017C28.5321 22.689 28.6808 22.7374 28.795 22.8355C28.9083 22.9322 28.9765 23.0717 28.9826 23.2207C28.9865 23.3236 28.9587 23.4253 28.9028 23.5117C28.7962 23.6808 28.5398 23.9067 28.3925 24.0596C28.0418 24.4237 27.6354 24.7872 27.2999 25.1614L28.3443 26.2007C28.5267 26.3823 28.8944 26.6976 28.9601 26.9328C28.999 27.0714 28.9792 27.2201 28.905 27.3436C28.8102 27.5034 28.6801 27.5713 28.5096 27.616C28.0813 27.6256 27.8743 27.2681 27.584 26.9936C27.2234 26.6529 26.8918 26.2745 26.5215 25.9416C26.406 26.032 26.1883 26.26 26.0767 26.3719L25.3206 27.1317C25.0318 27.4219 24.6705 27.8609 24.2381 27.4742C24.1276 27.3771 24.0638 27.2372 24.0631 27.0898C24.0619 26.9791 24.0941 26.8706 24.1554 26.7783C24.2619 26.6173 24.5215 26.3834 24.6657 26.2352C25.0167 25.8749 25.3975 25.5227 25.7419 25.157C25.4418 24.7793 24.145 23.6989 24.0701 23.354C24.0392 23.2118 24.0749 23.0628 24.1554 22.943C24.2561 22.7929 24.3843 22.7318 24.5562 22.701Z" fill="white"/>
<path d="M17.4469 15.5919C17.7925 15.5869 17.9882 15.8426 18.2131 16.0686L18.95 16.8124C19.0732 16.9366 19.192 17.0574 19.3213 17.175C19.4622 17.303 19.5997 17.0886 19.7069 16.9806L20.5655 16.1177C20.7514 15.9308 20.9876 15.6282 21.2544 15.596C21.4043 15.5782 21.555 15.6218 21.6724 15.7169C21.7878 15.8091 21.8597 15.9451 21.871 16.0924C21.8794 16.2029 21.8513 16.3132 21.7913 16.4064C21.6879 16.5686 21.4289 16.7998 21.2868 16.9468C20.9336 17.3124 20.5294 17.6759 20.1907 18.0521L21.2351 19.0915C21.4174 19.2732 21.7854 19.5886 21.8508 19.8236C21.8898 19.9622 21.87 20.1109 21.7958 20.2345C21.7008 20.3946 21.5707 20.4623 21.4 20.5069C20.9774 20.5161 20.781 20.1757 20.4954 19.9053C20.1283 19.5577 19.7896 19.1711 19.4123 18.8324C19.2969 18.9226 19.0806 19.1494 18.9695 19.2609L18.2115 20.0224C18.0347 20.2001 17.7961 20.4917 17.5353 20.5076C17.3861 20.5173 17.2393 20.4659 17.1289 20.365C17.0184 20.2678 16.9547 20.128 16.9541 19.9807C16.9528 19.8699 16.9849 19.7612 17.0462 19.6691C17.1528 19.508 17.4122 19.2742 17.5565 19.126C17.9075 18.7658 18.2883 18.4135 18.6326 18.0478C18.3283 17.6648 17.0433 16.6003 16.9624 16.2462C16.9299 16.1043 16.9658 15.9536 17.046 15.8338C17.1465 15.6836 17.275 15.6227 17.4469 15.5919Z" fill="white"/>
</svg>
