<svg width="39" height="39" viewBox="0 0 39 39" fill="none" xmlns="http://www.w3.org/2000/svg">
<path d="M15.0404 19.7167C15.6111 19.6737 16.1909 20.0791 16.7924 20.2762C17.2771 20.4333 17.7746 20.5478 18.2793 20.6182L18.283 25.1215L18.2804 26.2599C18.2797 26.4896 18.2584 26.8095 18.3053 27.0327C18.5761 28.3202 20.3357 28.3588 20.6754 27.0982C20.7444 26.8426 20.7196 26.428 20.7196 26.1561L20.7198 24.9764L20.7211 20.6133C21.1686 20.555 21.7076 20.4396 22.1377 20.2975C22.343 20.2284 22.5456 20.1517 22.7452 20.0673C23.128 19.9022 23.4037 19.7209 23.8327 19.7085C24.4214 19.6916 25.1576 20.4221 25.5672 20.8309C26.9809 22.2571 27.8432 24.1383 28.0011 26.1403C28.0628 26.8735 28.0329 27.8782 28.0323 28.6311L28.0321 32.9093C26.2257 32.939 24.3435 32.9126 22.5321 32.9126H10.9666C10.9827 32.4207 10.9694 31.8519 10.9694 31.3558L10.9689 28.3523C10.9689 27.6274 10.9455 26.7586 11.0051 26.0466C11.1459 24.4942 11.7092 23.01 12.6339 21.7553C13.0844 21.1451 13.6176 20.5961 14.2111 20.1235C14.4946 19.8978 14.6803 19.7714 15.0404 19.7167Z" fill="#026234"/>
<path d="M19.1536 6.10366C22.5116 5.91361 25.3886 8.48032 25.5814 11.8382C25.7741 15.1961 23.2097 18.0752 19.8519 18.2705C16.4904 18.4661 13.6074 15.8982 13.4145 12.5365C13.2216 9.17483 15.7918 6.29392 19.1536 6.10366Z" fill="#026234"/>
<path d="M4.60563 21.4688C5.07389 21.4391 5.393 21.6415 5.84925 21.7552C6.32837 21.8717 6.81947 21.9317 7.31253 21.934C7.83145 21.9315 8.34801 21.8641 8.85009 21.7329C9.27454 21.6219 9.48813 21.4731 9.93642 21.4728C9.68111 21.8866 9.43104 22.49 9.24906 22.9461C8.42485 25.0119 8.53196 26.7684 8.53177 28.9288L8.53208 32.9092C8.02687 32.9182 7.50476 32.9121 6.99828 32.9124L3.93786 32.9134C3.50515 32.914 3.07206 32.9166 2.63946 32.913C2.32769 32.9105 2.03439 32.8871 1.77065 32.7074C1.12199 32.2656 1.21736 31.6468 1.21835 30.9626L1.21984 29.4362L1.21887 27.6153C1.21859 27.155 1.20836 26.6841 1.24961 26.2263C1.35448 25.1035 1.77118 24.0321 2.45268 23.1335C2.89888 22.5449 3.84947 21.5725 4.60563 21.4688Z" fill="#026234"/>
<path d="M34.1421 21.4684C34.1804 21.4651 34.2189 21.463 34.2573 21.4623C34.853 21.4526 35.5265 22.0604 35.9388 22.4538C37.1206 23.5816 37.7816 25.1949 37.781 26.824C37.7805 28.2357 37.7862 29.6527 37.7831 31.0649C37.7828 31.372 37.7881 31.6533 37.7468 31.9586C37.6973 32.3244 37.2278 32.8168 36.8769 32.8688C36.3589 32.9456 35.7775 32.912 35.2601 32.9119L32.3064 32.9126H30.4666C30.4912 31.7093 30.4632 30.449 30.4699 29.251C30.4823 27.0451 30.5864 25.0258 29.7413 22.9301C29.5535 22.4643 29.3206 21.8976 29.0569 21.4705C29.445 21.471 29.6651 21.5897 30.0361 21.7018C30.2682 21.7706 30.5049 21.8237 30.7443 21.8608C31.5833 21.9901 32.4402 21.9435 33.2604 21.7237C33.5354 21.651 33.8513 21.5082 34.1145 21.472L34.1421 21.4684Z" fill="#026234"/>
<path d="M31.3865 10.9791C34.07 10.8142 36.3803 12.8534 36.5498 15.5366C36.7193 18.2199 34.6842 20.5336 32.0012 20.7078C29.3118 20.8822 26.9912 18.841 26.8211 16.1512C26.6513 13.4615 28.6965 11.1444 31.3865 10.9791Z" fill="#026234"/>
<path d="M7.01165 10.9791C9.69518 10.8142 12.0054 12.8534 12.175 15.5366C12.3445 18.2199 10.3092 20.5336 7.62628 20.7078C4.93682 20.8822 2.61621 18.841 2.44627 16.1513C2.27635 13.4615 4.3216 11.1444 7.01165 10.9791Z" fill="#026234"/>
</svg>
