<svg width="39" height="39" viewBox="0 0 39 39" fill="none" xmlns="http://www.w3.org/2000/svg">
<path d="M17.2503 9.26538C17.3303 9.30876 18.0011 10.7928 18.1027 11.0108L19.4501 13.9023L23.5443 22.6818L24.4372 24.5949C24.5734 24.8864 24.7549 25.3136 24.9049 25.5851C24.4569 25.6312 23.8372 25.6396 23.3714 25.6638C22.7293 25.7015 22.0883 25.7569 21.4492 25.8296C17.3651 26.2969 12.7661 27.4953 9.03142 29.2374C8.48348 29.5013 7.97201 29.7732 7.35583 29.81C6.5833 29.8566 5.87414 29.6085 5.28996 29.1063C4.74053 28.6341 4.51795 28.0293 4.2209 27.3894L3.46236 25.7588L2.62417 23.9571C2.46703 23.6193 2.29326 23.2722 2.15901 22.9261C1.74273 21.8538 2.05846 20.5901 2.90578 19.8172C3.2849 19.4714 3.70023 19.3125 4.15619 19.097C4.46277 18.952 4.76717 18.8025 5.0693 18.6486C5.7499 18.3006 6.42109 17.9344 7.08211 17.5505C10.8909 15.3476 14.3235 12.5507 17.2503 9.26538Z" fill="#026234"/>
<path d="M22.0513 4.52113C22.1453 4.51602 22.2442 4.51762 22.3384 4.52063C23.0933 4.55068 23.8053 4.87951 24.3176 5.43475C24.7302 5.87641 25.0026 6.57805 25.2593 7.12975L26.1556 9.05729L28.8131 14.7646L31.047 19.5801L31.7341 21.0549C31.871 21.3486 32.0397 21.69 32.1555 21.988C32.2991 22.3518 32.3638 22.7418 32.345 23.1321C32.3143 23.8908 31.9786 24.6049 31.4141 25.1128C30.8379 25.6321 30.1306 25.8736 29.3594 25.8305C28.9745 25.805 28.5941 25.7498 28.2092 25.7231C28.0081 25.7092 27.8089 25.6877 27.6093 25.6595C27.3696 25.0903 27.0643 24.4669 26.8015 23.9034L25.3785 20.8525L21.0925 11.6613L19.6979 8.67057C19.4845 8.21337 19.1531 7.55916 18.9727 7.10392C19.0926 6.89455 19.2721 6.6853 19.398 6.47749C20.0525 5.39678 20.6857 4.62523 22.0513 4.52113Z" fill="#026234"/>
<path d="M18.6848 27.885C18.7306 27.8797 18.727 27.8823 18.774 27.8875C18.8801 27.9867 20.1721 30.7997 20.2862 31.1008C20.3753 31.3329 20.4338 31.5755 20.4599 31.8227C20.5398 32.5852 20.3077 33.3477 19.8166 33.9363C19.65 34.1353 19.4572 34.3109 19.2436 34.4581C18.9293 34.6757 18.6022 34.7972 18.2671 34.9654C17.135 35.5338 15.9848 35.4013 14.997 34.5803C14.5105 34.118 14.3704 33.7769 14.0944 33.1848L13.5917 32.1063C13.2391 31.3506 12.7346 30.3444 12.429 29.5867C12.6067 29.5417 12.8747 29.4372 13.0603 29.3736C13.4438 29.2414 13.8291 29.1148 14.2162 28.9937C15.5971 28.5662 17.2589 28.1282 18.6848 27.885Z" fill="#026234"/>
<path d="M33.8378 10.1944C34.1238 10.1672 34.4108 10.2379 34.6513 10.3948C34.9251 10.5729 35.1022 10.847 35.1671 11.1657C35.2281 11.4796 35.1631 11.805 34.9862 12.0714C34.8842 12.2233 34.7503 12.3513 34.594 12.4466C34.3262 12.6132 33.4965 12.9729 33.1753 13.1218L32.1507 13.6019C31.8548 13.741 31.501 13.9301 31.186 13.994C30.8619 14.0222 30.5567 13.9441 30.2929 13.7509C30.0358 13.5601 29.8663 13.2738 29.8227 12.9565C29.7789 12.6507 29.8812 12.2195 30.0878 11.9983C30.4312 11.6307 31.2174 11.3389 31.673 11.126L32.7489 10.6238C33.0635 10.4772 33.5053 10.2403 33.8378 10.1944Z" fill="#026234"/>
<path d="M32.545 17.0679C32.9291 17.043 33.1934 17.1576 33.5465 17.2869C33.9104 17.4202 34.2755 17.5531 34.6399 17.6852L35.6435 18.0494C36.2218 18.2596 36.7329 18.3957 36.9186 19.0583C37.007 19.3735 36.9655 19.7107 36.8032 19.9947C36.5964 20.3527 36.2984 20.4999 35.9177 20.6042C35.1975 20.6575 33.4469 19.7654 32.6629 19.5652C32.115 19.4253 31.6104 19.1053 31.4982 18.5001C31.4401 18.1804 31.51 17.8507 31.6927 17.582C31.9084 17.2677 32.1817 17.1342 32.545 17.0679Z" fill="#026234"/>
<path d="M28.866 3.69912C29.1178 3.68204 29.3369 3.71751 29.5624 3.83415C29.8481 3.98006 30.0627 4.23533 30.1571 4.54183C30.2188 4.74381 30.2282 4.95814 30.1844 5.16474C30.1404 5.37911 30.0265 5.66224 29.9482 5.87575L29.55 6.9595C29.3859 7.40958 29.229 7.86425 29.061 8.31311C28.867 8.83146 28.5766 9.03526 28.062 9.18547C27.752 9.21291 27.481 9.15479 27.2182 8.98485C26.9484 8.81242 26.7608 8.53723 26.6989 8.22306C26.6102 7.78052 26.7979 7.39593 26.9442 6.98915C27.0444 6.71116 27.1487 6.43439 27.2504 6.15697L27.6379 5.08348C27.903 4.34683 28.0062 3.86677 28.866 3.69912Z" fill="#026234"/>
</svg>
