<svg width="25" height="25" viewBox="0 0 25 25" fill="none" xmlns="http://www.w3.org/2000/svg">
<path d="M8.66667 12.5H2.27778C1.93889 12.5 1.61388 12.3654 1.37425 12.1257C1.13462 11.8861 1 11.5611 1 11.2222V2.27778C1 1.93889 1.13462 1.61388 1.37425 1.37425C1.61388 1.13462 1.93889 1 2.27778 1H8.66667C9.00555 1 9.33056 1.13462 9.57019 1.37425C9.80982 1.61388 9.94444 1.93889 9.94444 2.27778V11.2222C9.94444 11.5611 9.80982 11.8861 9.57019 12.1257C9.33056 12.3654 9.00555 12.5 8.66667 12.5ZM24 6.11111V2.27778C24 1.93889 23.8654 1.61388 23.6257 1.37425C23.3861 1.13462 23.0611 1 22.7222 1H16.3333C15.9944 1 15.6694 1.13462 15.4298 1.37425C15.1902 1.61388 15.0556 1.93889 15.0556 2.27778V6.11111C15.0556 6.45 15.1902 6.77501 15.4298 7.01464C15.6694 7.25427 15.9944 7.38889 16.3333 7.38889H22.7222C23.0611 7.38889 23.3861 7.25427 23.6257 7.01464C23.8654 6.77501 24 6.45 24 6.11111ZM9.94444 22.7222V18.8889C9.94444 18.55 9.80982 18.225 9.57019 17.9854C9.33056 17.7457 9.00555 17.6111 8.66667 17.6111H2.27778C1.93889 17.6111 1.61388 17.7457 1.37425 17.9854C1.13462 18.225 1 18.55 1 18.8889V22.7222C1 23.0611 1.13462 23.3861 1.37425 23.6257C1.61388 23.8654 1.93889 24 2.27778 24H8.66667C9.00555 24 9.33056 23.8654 9.57019 23.6257C9.80982 23.3861 9.94444 23.0611 9.94444 22.7222ZM24 22.7222V13.7778C24 13.4389 23.8654 13.1139 23.6257 12.8743C23.3861 12.6346 23.0611 12.5 22.7222 12.5H16.3333C15.9944 12.5 15.6694 12.6346 15.4298 12.8743C15.1902 13.1139 15.0556 13.4389 15.0556 13.7778V22.7222C15.0556 23.0611 15.1902 23.3861 15.4298 23.6257C15.6694 23.8654 15.9944 24 16.3333 24H22.7222C23.0611 24 23.3861 23.8654 23.6257 23.6257C23.8654 23.3861 24 23.0611 24 22.7222Z" stroke="#ffffff" stroke-width="2" stroke-linecap="round" stroke-linejoin="round"/>
</svg>
