<svg width="26" height="26" viewBox="0 0 26 26" fill="none" xmlns="http://www.w3.org/2000/svg">
<path d="M11.9964 0.88247C15.1374 0.860225 17.7019 3.38804 17.7248 6.52898C17.7478 9.66994 15.2207 12.235 12.0797 12.2588C8.9377 12.2825 6.37155 9.75429 6.34854 6.61228C6.32554 3.47026 8.8544 0.904722 11.9964 0.88247Z" fill="#026234"/>
<path d="M11.6377 14.6057C11.9257 14.5978 12.2884 14.5982 12.5736 14.6219C12.538 15.0288 12.5561 15.6777 12.5561 16.1005L12.556 18.6736L12.5561 21.1868C12.5562 22.3889 12.5024 23.3788 13.1459 24.4605C12.3713 24.4845 11.5056 24.4671 10.7257 24.4671L6.24521 24.4673L4.13285 24.4678C3.85134 24.4678 3.19911 24.4846 2.95496 24.4317C2.57932 24.3694 2.23186 24.1932 1.95955 23.9269C1.55595 23.5395 1.37861 23.063 1.37786 22.512C1.37676 21.6955 1.37732 20.878 1.37719 20.0615L1.37676 19.1293C1.3763 18.5516 1.34114 18.1046 1.67411 17.5974C2.03188 17.0523 2.70204 16.7962 3.27657 16.5271C5.89753 15.3059 8.74654 14.6512 11.6377 14.6057Z" fill="#026234"/>
<path d="M16.9025 12.1292C17.1924 12.1066 17.7053 12.1169 18.0119 12.1202C18.5961 12.1378 19.176 12.0704 19.754 12.1919C20.3549 12.3182 21.0159 12.7067 21.3746 13.2165C21.4894 13.3795 21.5107 13.631 21.4662 13.8246C21.4185 14.0343 21.287 14.2155 21.1024 14.3259C20.8147 14.5004 20.4599 14.4983 20.1993 14.2866C19.9506 14.0845 19.7997 13.8713 19.4646 13.7981C19.2104 13.7425 18.9704 13.7531 18.7109 13.7529L17.9772 13.7526C17.5056 13.7528 16.8082 13.6856 16.4053 13.9351C16.1181 14.1109 15.9145 14.3958 15.8411 14.7246C15.7876 14.9672 15.8053 15.717 15.8055 16.0158L15.806 18.3358L15.8059 20.9952L15.8052 21.7773C15.8035 22.2028 15.7719 22.5524 16.0168 22.9266C16.1966 23.2031 16.4799 23.3959 16.8031 23.4612C16.996 23.5 17.2287 23.4888 17.4275 23.4883H18.1072H18.7888C19.2481 23.489 19.4708 23.5129 19.8652 23.2471C20.1268 23.0396 20.2103 22.8407 20.5901 22.8006C20.8098 22.7751 21.0303 22.8406 21.2005 22.9819C21.3643 23.1153 21.4668 23.3095 21.4847 23.52C21.5646 24.4116 20.0586 25.0984 19.3167 25.1171C18.8894 25.1278 18.4625 25.1205 18.0378 25.1271C16.9484 25.1439 16.0682 25.1773 15.1807 24.4166C14.5994 23.9159 14.2433 23.2029 14.1921 22.4374C14.1626 22.0319 14.1827 21.4075 14.1827 20.9829L14.1826 18.2332V15.9563C14.1826 15.5184 14.1587 14.8863 14.2346 14.4727C14.3296 13.9603 14.5615 13.4832 14.9059 13.0921C15.4216 12.4968 16.1258 12.1875 16.9025 12.1292Z" fill="#026234"/>
<path d="M21.5835 15.6451C21.8661 15.6337 22.0757 15.7454 22.2716 15.9418C22.7493 16.4208 23.2264 16.9003 23.7054 17.378L24.125 17.7943C24.2474 17.9139 24.3813 18.0294 24.4791 18.1708C24.7104 18.5071 24.6413 18.9394 24.3544 19.2178C23.7289 19.8248 23.1214 20.45 22.5016 21.0628C22.2393 21.3223 22.0388 21.5963 21.639 21.5987C21.4186 21.601 21.2067 21.5144 21.0508 21.3587C20.8914 21.199 20.8175 21.0067 20.821 20.7833C20.8269 20.4164 21.0082 20.2523 21.2487 20.0129L21.6031 19.6618C21.6795 19.5879 21.7557 19.5083 21.8304 19.4322C21.6372 19.4475 21.3102 19.439 21.1097 19.4391L19.8011 19.4396L18.5107 19.4406C18.0547 19.4412 17.542 19.5271 17.2166 19.1433C17.0762 18.9785 17.0084 18.7639 17.0287 18.5484C17.0498 18.3261 17.1587 18.1214 17.3312 17.9796C17.6176 17.7488 18.095 17.8025 18.4489 17.8027L19.6875 17.803L21.0205 17.8032C21.2641 17.8029 21.6178 17.792 21.8504 17.8159C21.7157 17.7063 21.024 17.0107 20.9391 16.8787C20.8774 16.7837 20.8383 16.6758 20.8248 16.5633C20.7968 16.3381 20.8608 16.1111 21.0026 15.9339C21.1577 15.7385 21.3433 15.6714 21.5835 15.6451Z" fill="#026234"/>
</svg>
